<svg id="ab4017e6-c833-4c11-a9da-a5f7d7aa4919" data-name="Layer 1" xmlns="http://www.w3.org/2000/svg" width="865.76" height="682.89" viewBox="0 0 865.76 682.89"><ellipse cx="437.09" cy="610.78" rx="278.44" ry="53.89" transform="translate(-12.84 9.4) rotate(-1.21)" fill="#67bde0"/><ellipse cx="437.09" cy="610.78" rx="278.44" ry="53.89" transform="translate(-12.84 9.4) rotate(-1.21)" fill="#fff" opacity="0.7"/><path d="M745.72,431.07s87.79-82.84,39.56-192.83a189.11,189.11,0,0,0-62-76.45C662.89,117.72,510.15,30.52,280.39,64.2a171.26,171.26,0,0,0-69.2,26c-33.73,22.12-69.47,62.76-54.27,132.39,5.37,24.61,4.16,50.28-4.7,73.86-8.77,23.37-25.4,52-56.35,82.95,0,0-66,63.71-1.79,118.85a117,117,0,0,0,47.39,24.38C221.46,543.11,545,611.1,745.72,431.07Z" fill="#67bde0"/><path d="M745.72,431.07s87.79-82.84,39.56-192.83a189.11,189.11,0,0,0-62-76.45C662.89,117.72,510.15,30.52,280.39,64.2a171.26,171.26,0,0,0-69.2,26c-33.73,22.12-69.47,62.76-54.27,132.39,5.37,24.61,4.16,50.28-4.7,73.86-8.77,23.37-25.4,52-56.35,82.95,0,0-66,63.71-1.79,118.85a117,117,0,0,0,47.39,24.38C221.46,543.11,545,611.1,745.72,431.07Z" fill="#fff" opacity="0.7"/><rect x="544.28" y="316.64" width="199.93" height="336.88" rx="21.14" fill="#67bde0"/><rect x="544.28" y="316.64" width="199.93" height="336.88" rx="21.14" fill="#fff" opacity="0.6"/><rect x="530.83" y="314.81" width="199.93" height="336.88" rx="21.14" fill="#67bde0"/><rect x="530.83" y="314.81" width="199.93" height="336.88" rx="21.14" fill="#fff" opacity="0.5"/><rect x="668.03" y="535.38" width="43.34" height="96.49" rx="7.17" fill="#fff" opacity="0.6"/><rect x="670.7" y="477.86" width="43.34" height="43.34" rx="7.17" fill="#fff" opacity="0.6"/><rect x="549.33" y="351.8" width="165.53" height="48.61" rx="5.79" fill="#fff"/><rect x="551.89" y="421.64" width="43.34" height="43.34" rx="7.17" fill="#fff" opacity="0.6"/><path d="M610.56,374.4v-9.6l1.37-3.66a2.93,2.93,0,0,1,2.28,2.29v12.8l-.91.91Zm2.74,3.66.91.91v12.8a2.93,2.93,0,0,1-2.28,2.29l-1.37-3.66v-9.6Z" fill="#2f2e41"/><path d="M621.48,365.71v8.69l-2.74,2.74-.92-.91V364.34Zm-3.66,25.15V379l.92-.91,2.74,2.74v8.69Zm16,3.2H620.11a3,3,0,0,1-2.29-2.29l3.66-1.37h11Zm-1.38-29.26H621.53l-3.66-1.37a2.94,2.94,0,0,1,2.29-2.29h13.67Zm.92,9.6v-9.6l1.37-3.66a3,3,0,0,1,2.29,2.29v12.8l-.92.91Zm2.74,3.66.92.91v12.8a3,3,0,0,1-2.29,2.29l-1.37-3.66v-9.6Z" fill="#2f2e41"/><path d="M644.29,365.71v8.69l-2.74,2.74-.91-.91V364.34Zm-3.65,25.15V379l.91-.91,2.74,2.74v8.69Zm16,3.2H642.92a2.93,2.93,0,0,1-2.28-2.29l3.65-1.37h11Zm-1.37-29.26H644.34l-3.66-1.37a3,3,0,0,1,2.29-2.29h13.67Zm.91,9.6v-9.6l1.37-3.66a3,3,0,0,1,2.29,2.29v12.8l-.92.91Zm2.74,3.66.92.91v12.8a3,3,0,0,1-2.29,2.29l-1.37-3.66v-9.6Z" fill="#2f2e41"/><path d="M667.11,365.71v8.69l-2.75,2.74-.91-.91V364.34Zm-3.66,25.15V379l.91-.91,2.75,2.74v8.69Zm16,3.2H665.74a2.94,2.94,0,0,1-2.29-2.29l3.66-1.37h11Zm-1.37-29.26H667.15l-3.65-1.37a2.93,2.93,0,0,1,2.28-2.29h13.67Zm.91,9.6v-9.6l1.38-3.66a3,3,0,0,1,2.28,2.29v12.8l-.91.91Zm2.75,3.66.91.91v12.8a3,3,0,0,1-2.28,2.29L679,390.4v-9.6Z" fill="#2f2e41"/><path d="M689.92,365.71v8.69l-2.74,2.74-.92-.91V364.34Zm-3.66,25.15V379l.92-.91,2.74,2.74v8.69Zm16,3.2H688.55a3,3,0,0,1-2.29-2.29l3.66-1.37h11Zm-1.37-29.26H690l-3.66-1.37a3,3,0,0,1,2.28-2.29h13.67Zm.92,9.6v-9.6l1.37-3.66a2.93,2.93,0,0,1,2.28,2.29v12.8l-.91.91Zm2.74,3.66.91.91v12.8a2.93,2.93,0,0,1-2.28,2.29l-1.37-3.66v-9.6Z" fill="#2f2e41"/><rect x="611.96" y="421.18" width="43.34" height="43.34" rx="7.17" fill="#fff" opacity="0.6"/><path d="M467.59,477.6s2.69-12.08,27.3-9.4v15.22H480.31S467.74,482.93,467.59,477.6Z" fill="#2f2e41"/><path d="M467.59,477.6s2.69-12.08,27.3-9.4v15.22H480.31S467.74,482.93,467.59,477.6Z" opacity="0.2"/><rect x="548.23" y="419.98" width="43.34" height="43.34" rx="7.17" fill="#fff"/><path d="M632.87,115.08,646,118.39l5.49-21.69-13.38-3.38A56.29,56.29,0,0,0,633.53,69l12.56-7.92L634.16,42.12l-13.38,8.44a56.11,56.11,0,0,0-16.1-10.85l4.14-16.31-21.69-5.49-4.29,16.91a56.34,56.34,0,0,0-20.93,3.54l-7.34-12.53-19.3,11.31,7.64,13a56.26,56.26,0,0,0-11.86,16.06l-13.4-3.39-5.49,21.69,13.13,3.32A56.06,56.06,0,0,0,528.05,109l-14.69,9.26,11.93,18.92,13.88-8.75a56.27,56.27,0,0,0,16.64,13L552,156.33l21.69,5.5,3.61-14.27a56.19,56.19,0,0,0,21.2-2.4l6.87,11.73,19.31-11.31-6.58-11.21A56.17,56.17,0,0,0,632.87,115.08ZM572.1,129c-20.79-6.12-32.6-28.24-26.37-49.42s28.13-33.4,48.92-27.29,32.6,28.24,26.37,49.42S592.89,135.09,572.1,129Z" fill="#e6e7e8"/><path d="M585,84.74V284a10.91,10.91,0,0,1-10.92,10.91H272.33A10.91,10.91,0,0,1,261.42,284V84.74a10.91,10.91,0,0,1,10.91-10.9H574.05A10.92,10.92,0,0,1,585,84.74Z" fill="#67bde0"/><path d="M585,84.74V284a10.91,10.91,0,0,1-10.92,10.91H272.33A10.91,10.91,0,0,1,261.42,284V84.74a10.91,10.91,0,0,1,10.91-10.9H574.05A10.92,10.92,0,0,1,585,84.74Z" fill="#fff" opacity="0.6"/><rect x="416.35" y="128.49" width="168.29" height="139.86" fill="#fff" opacity="0.6"/><path d="M585,84.74v30.54H261.42V84.74a10.91,10.91,0,0,1,10.91-10.9H574.05A10.92,10.92,0,0,1,585,84.74Z" fill="#fff" opacity="0.6"/><circle cx="309.8" cy="97.03" r="6.39" fill="#fff"/><circle cx="286" cy="97.03" r="6.39" fill="#fff"/><circle cx="333.59" cy="97.03" r="6.39" fill="#fff"/><rect x="294.56" y="133.93" width="57.13" height="4.26" fill="#67bde0"/><rect x="357.72" y="133.53" width="45.06" height="4.66" fill="#67bde0"/><rect x="294.56" y="147.06" width="120.64" height="3.9" fill="#67bde0"/><rect x="448.43" y="254.26" width="55.01" height="4.26" fill="#67bde0"/><rect x="509.25" y="253.86" width="43.39" height="4.66" fill="#67bde0"/><rect x="448.43" y="267.39" width="116.17" height="3.9" fill="#67bde0"/><rect x="448.43" y="279.88" width="91.59" height="3.9" fill="#67bde0"/><rect x="446.61" y="213.78" width="23.39" height="16.51" fill="#67bde0"/><rect x="480.54" y="201.7" width="23.39" height="29.19" fill="#2f2e41"/><rect x="512.03" y="188.25" width="23.39" height="42.95" fill="#fff"/><rect x="544.13" y="175.41" width="23.39" height="56.1" fill="#fff" opacity="0.32"/><path d="M443.4,201.63a.53.53,0,0,1-.41-.88l17.56-21.65a.52.52,0,0,1,.63-.15l19.26,8.71,15.8-25.12a.53.53,0,0,1,.76-.15L516.47,176l12.44-25.54a.53.53,0,0,1,.7-.25l18.06,8.41,19.12-27.81a.54.54,0,0,1,.89.61L548.3,159.57a.53.53,0,0,1-.67.18l-18-8.38L517.15,177a.54.54,0,0,1-.34.29.52.52,0,0,1-.44-.08l-19.53-13.62-15.75,25a.53.53,0,0,1-.67.2l-19.3-8.72-17.3,21.33A.55.55,0,0,1,443.4,201.63Z" fill="#fff"/><path d="M570,142.3a.53.53,0,0,1-.52-.4l-2.58-10.11-12.46,4.55a.54.54,0,0,1-.37-1l13-4.75a.54.54,0,0,1,.43,0,.51.51,0,0,1,.27.34l2.73,10.68a.53.53,0,0,1-.39.65A.3.3,0,0,1,570,142.3Z" fill="#fff"/><rect x="552.93" y="89.05" width="2.14" height="17.25" transform="translate(86.9 411.16) rotate(-43.87)" fill="#fff"/><rect x="545.75" y="96.18" width="16.99" height="2.14" transform="translate(95.25 422.78) rotate(-45.3)" fill="#fff"/><path d="M365.52,182A50.33,50.33,0,1,1,309.92,232h50.44Z" fill="#67bde0"/><path d="M324.64,178.62l27.29,45.81,8.31-52.22S341.49,167.46,324.64,178.62Z" fill="#fff"/><path d="M308,174.82l26.35,43.68-52.46,1.18S280,189.78,308,174.82Z" fill="#2f2e41"/><path d="M694,162.22l7.14-.27-.45-11.83-7.3.28a29.7,29.7,0,0,0-5.95-11.69l5.2-5.9L683.79,125l-5.54,6.28a29.85,29.85,0,0,0-9.79-3.11l-.34-8.9-11.83.45.35,9.23a29.64,29.64,0,0,0-10.11,4.92l-5.6-5.26-8.11,8.62,5.83,5.49a29.76,29.76,0,0,0-3.63,9.92l-7.31.28.45,11.84,7.16-.28a29.69,29.69,0,0,0,4.56,10.33l-6.08,6.9,8.89,7.83,5.74-6.52a29.67,29.67,0,0,0,10.4,4.14l.3,8.1L671,194.8l-.3-7.79a29.8,29.8,0,0,0,10.41-4.38l5.24,4.93,8.12-8.63-5-4.71A30,30,0,0,0,694,162.22Zm-28.79,16.13A21.16,21.16,0,1,1,686,157.19,21,21,0,0,1,665.24,178.35Z" fill="#e6e7e8"/><path d="M184.06,655.73h0a3.34,3.34,0,0,0,3.33-3.19l6.5-150.32h-7.41l-5.74,150A3.32,3.32,0,0,0,184.06,655.73Z" fill="#d1d3d4"/><path d="M151.94,502.22,110.19,653a3.69,3.69,0,0,1-3.56,2.71h0a3.7,3.7,0,0,1-3.56-4.67l42.14-154.57Z" fill="#d1d3d4"/><path d="M272.33,655.73h0a3.73,3.73,0,0,0,3.73-3.58l6.25-148H274.8l-6.19,147.66A3.73,3.73,0,0,0,272.33,655.73Z" fill="#d1d3d4"/><path d="M205.32,359.27s-11-21.37-28.87-23.59a15.8,15.8,0,0,0-13,4.4c-4.93,4.85-11.56,14.8-14.33,34.48,0,0-4.11,42.72-1.13,67.26h22.47s27-.56,30.81,49.35v13h83.91L244.6,454.41l-33.82-11-2.6-68.33Z" fill="#a7a9ac"/><path d="M332.39,447.52s-25,7.25-50.72,54.7c0,0-7.15-7.67-25.26-5.38,0,0-74.06,18.34-73.14-45.39,0,0,2.61-17.69,9.33-25.58l48.47,1.75h11.46l6.15,5.06S312.43,437.58,332.39,447.52Z" fill="#2f2e41"/><rect x="237.68" y="290.92" width="14.94" height="21.28" transform="translate(490.31 603.12) rotate(-180)" fill="#f9b499"/><path d="M252.62,307.38v-4.51l-12.93-4.79S244,306.28,252.62,307.38Z" fill="#f7a48b"/><ellipse cx="252.62" cy="276.25" rx="22.61" ry="26.62" fill="#f9b499"/><ellipse cx="230.47" cy="281.86" rx="6.44" ry="9.69" transform="translate(-99.75 128.52) rotate(-25.82)" fill="#f9b499"/><path d="M256.09,434.07c7-.35,7-23.52,7-23.52l22.65-5.8,10.36-23.35h0c7.54-1.21,16.46.89,16.46.89l12.3-1.64a1.55,1.55,0,0,0,1.27-2L324.3,373l-8.46-25.11-1.24-3.69a1.61,1.61,0,0,0-1.93-1.09l-24.24,5.25h0l-3.34.73C268.56,318.9,253.89,315,253.89,315c2.73,6.39,14.14,31.61,14.14,31.61,4.69,13.51-1.75,27.91-1.75,27.91l-11.76,42.84S249.08,434.43,256.09,434.07Z" fill="#67bde0"/><path d="M295.25,380.34l.92,1.05c7.54-1.21,16.46.89,16.46.89l12.3-1.64a1.55,1.55,0,0,0,1.27-2L324.3,373C321.25,374.88,313.67,378,295.25,380.34Z" opacity="0.2"/><path d="M283.39,377.65s-6.22-5.55-2.19-12.93c0,0,4.16-4.74.42-14.39,0,0-10.28-21.14-26.15-32.17,0,0,16.64,19,21.57,31.29a17.61,17.61,0,0,1,1.15,8.22c-.44,4.61-1.78,13.77-5.61,18.27Z" opacity="0.2"/><path d="M253.89,315v-5a1,1,0,0,0-.89-1l-15.32-1.19h-6.2a1,1,0,0,0-1,1v6.67s11.63-3.56,20.77,13.9c0,0,13.72,21.29,7.15,44.21,0,0-6.14,27.32-13,36.29,0,0-4,4.42-4.32,17.62h11.46a57.71,57.71,0,0,1,2-10.23l11.76-42.84s7-15.88,1.75-27.91Z" fill="#67bde0"/><path d="M253.89,315v-5a1,1,0,0,0-.89-1l-15.32-1.19h-6.2a1,1,0,0,0-1,1v6.67s11.63-3.56,20.77,13.9c0,0,13.72,21.29,7.15,44.21,0,0-6.14,27.32-13,36.29,0,0-4,4.42-4.32,17.62h11.46a57.71,57.71,0,0,1,2-10.23l11.76-42.84s7-15.88,1.75-27.91Z" fill="#fff" opacity="0.4"/><path d="M207.31,303.05s7.19-11.46,8.2-34.28c0,0,.82-19.16,12.44-19,0,0,14.67-14.85,33.47-7.28,0,0,12.84,3,17.2,24.53,0,0,10.31,43.1,2.06,53.19,0,0-1.15-21.78-3.21-27.74l1.6,30.72-3.64,3.52-.94-15.67-.69,17h-3s-.67-.75-1.76-1.89c.35-4.46,1.13-16.54-.15-23.28,0,0-.4,13.12-1.34,21.76-3.61-3.6-9.33-8.28-13.68-9.6v-4.71s.17-1.25-1.27-1.24v-6.21s19.83.28,22.57-25a30.77,30.77,0,0,0-2.33-13.52H260.35l-4-4.71,1.07,3.66-7.8,1.69s-5.54-5.86-6.88-8.72c0,0-.46,10.55-4,13.45l-8.53,8.57s-1.55-2.87-4.07-3.53a1.79,1.79,0,0,0-2.07,1c-.74,1.69-1.42,5.25,1.83,10.9,0,0,2.95,4.94,7.79,4.22a30.12,30.12,0,0,0,2.13,3.13,27,27,0,0,0,2,2.36V308.1h-6.2a1,1,0,0,0-1,1v6.67s-6.24,2.56-11.89,11a37.78,37.78,0,0,1-7.46-5.26c2-3,5-8.19,5.8-13.3A63.22,63.22,0,0,1,209.8,320c-.49-.51-1-1-1.44-1.6,4.31-7.16,7.71-20.08,7.71-20.08-1.26,4.78-6.35,13.64-9.12,18.26h0a8.45,8.45,0,0,1-1.62-4.81A20.13,20.13,0,0,1,207.31,303.05Z" fill="#2f2e41"/><path d="M318.64,446.69a68.68,68.68,0,0,0-7.39,4.26c-2.35,1.59-4.66,3.26-6.88,5.05A102.1,102.1,0,0,0,292,467.75a103.38,103.38,0,0,0-10.29,13.63c-1.58,2.37-2.91,4.9-4.28,7.39-.71,1.23-1.25,2.55-1.86,3.84l-1.75,3.88a140,140,0,0,1,8.58-14.66,123.91,123.91,0,0,1,22.53-25.2A99.74,99.74,0,0,1,318.64,446.69Z" opacity="0.2"/><path d="M285.15,489.19c-5.57-2.79-11.94-3.61-18.15-3.67-1.55,0-3.12,0-4.67.19l-2.33.21-2.31.32c-1.55.19-3.07.54-4.6.81s-3,.53-4.55.72a105.41,105.41,0,0,1-18.46.67c-1.54-.09-3.08-.16-4.61-.33s-3.07-.33-4.6-.53-3.05-.49-4.58-.72-3-.64-4.55-.94c1.49.41,3,.86,4.49,1.21s3,.73,4.55,1,3.07.52,4.61.7,3.09.34,4.64.47a97.59,97.59,0,0,0,18.64-.43c1.55-.21,3.09-.45,4.62-.78s3-.65,4.54-.84a72.55,72.55,0,0,1,9.18-.87,53.53,53.53,0,0,1,9.21.51A34.1,34.1,0,0,1,285.15,489.19Z" opacity="0.2"/><path d="M256.39,436a29.82,29.82,0,0,0-8.63,3.28,43.06,43.06,0,0,0-7.61,5.31,48.35,48.35,0,0,0-6.32,6.79l-.71.91-.65,1-1.3,1.92c-.79,1.31-1.54,2.67-2.26,4,.93-1.23,1.76-2.52,2.7-3.73l1.4-1.8.7-.91.76-.85c.51-.57,1-1.14,1.5-1.72s1.06-1.09,1.59-1.64c1-1.13,2.19-2.11,3.29-3.15a57.8,57.8,0,0,1,7.32-5.4c.64-.42,1.29-.8,2-1.16s1.35-.71,2-1A31.51,31.51,0,0,1,256.39,436Z" opacity="0.2"/><path d="M222,443.9a22.51,22.51,0,0,1,3.33-2.61,33.87,33.87,0,0,1,3.63-2.14,52.53,52.53,0,0,1,7.77-3.17l2-.62,2-.52c1.35-.4,2.75-.59,4.12-.93s2.78-.46,4.18-.7,2.81-.34,4.21-.56c-1.42,0-2.84,0-4.26,0s-2.84.23-4.26.41a49,49,0,0,0-8.36,1.86,38.79,38.79,0,0,0-7.85,3.48A23.52,23.52,0,0,0,222,443.9Z" opacity="0.2"/><path d="M201.91,431.55a8.94,8.94,0,0,0-2.39,2.24,20.81,20.81,0,0,0-1.81,2.76,41.6,41.6,0,0,0-2.65,6c-.33,1-.68,2.07-1,3.12s-.58,2.1-.8,3.17-.45,2.13-.63,3.2-.33,2.15-.45,3.23c.67-2.07,1.27-4.15,1.89-6.22s1.28-4.12,2-6.15,1.48-4,2.38-6a30.78,30.78,0,0,1,1.5-2.84A10.28,10.28,0,0,1,201.91,431.55Z" opacity="0.2"/><path d="M232.44,644.1l2.94.47,10.45-27.25,2.82-.59,1.06,23c.35,14.56,29.59,12.33,29.59,12.33,7.4-1.17-9.79-15.25-9.79-15.25h0a58.53,58.53,0,0,0-12.05-2.36s.78-17-4.33-24.75c0,0,10.05-12.88,6.34-20.62-17.13-5-19.62,12.25-19.62,12.25Z" fill="#67bde0"/><path d="M300.66,600c-2.75,6.2,1.32,11.92,1.32,11.92,8.33,11.1,9.52,17,9.52,17h13.86c-6.23-4.36-9.91-26.17-9.91-26.17-.39-9.51,7.54-29.32,7.54-29.32l23-77c10.71-40.52-13.59-49-13.59-49-7.93,2-20.51,13.77-20.51,13.77L299.57,567.82l.86,14.77-3.21,2.29C302.14,590.71,300.66,600,300.66,600Z" fill="#f7a48b"/><path d="M285,643.9h2.41l7.23-28.77c4.55,1.88,8.76,8.82,10.68,12.36a7.46,7.46,0,0,1,.84,4.15c-.87,12.23,9.74,12,9.74,12h22.46c4.67-3.92-13-14.65-13-14.65H311.5s-1.19-5.94-9.52-17c0,0-4.07-5.72-1.32-11.92,0,0,1.48-9.3-3.44-15.13l-6.67,5.22c-7.73,5.88-5.5,12.61-4.15,15.27a5.67,5.67,0,0,1,.58,2.9Z" fill="#67bde0"/><path d="M170.21,336.15s-18.58-6.65-25.31,11.75c0,0-8.86,13.52-9.17,49.9,0,0-.91,67.56,8.56,106.38h57V473.3s-.09-31.18-30.81-31.48H148s-2-35.17,1.13-67.26C149.09,374.56,152.42,342.05,170.21,336.15Z" fill="#bcbec0"/><path d="M201.24,504.18h-9V468.11s-2-21.1-21.77-26.29c0,0,28.45-2.45,30.81,31.48Z" fill="#d1d3d4"/><path d="M183.26,584.88s-4.35-8.24-11.33-8.77H141.61a14.09,14.09,0,0,0-9,3.11,17.9,17.9,0,0,0-5.19,7.19s-1.18,3.52-3.78,3.21c0,0-2.91-.92-.77-5.5a26.32,26.32,0,0,1,6.79-9.64,14.15,14.15,0,0,1,9.11-3.2H173.7a8,8,0,0,1,2.47.39,16,16,0,0,1,7.46,5.11Z" fill="#a7a9ac"/><path d="M272,571.28h-72.8s-5.26.56-8.44,3.65l-.43,10s1.75-6.62,14.57-7.8h66.77Z" fill="#a7a9ac"/><path d="M288.43,348.37l27.41-.47-1.24-3.69a1.61,1.61,0,0,0-1.93-1.09Z" opacity="0.2"/><path d="M325.81,395.22a4.64,4.64,0,0,0,2-.05,1.75,1.75,0,0,0,.6-3c-2.39-2.15-9-7.72-15.79-9.92,0,0-10.59-2.39-16.46-.89l-5.46,12.27s10,4.83,13.89,5.21h14.3s1.68,0,1.31-1.31c0,0,3.73,2.52,5.14.37A3,3,0,0,0,325.81,395.22Z" fill="#f9b499"/><path d="M324.5,394.29a17.75,17.75,0,0,0-2.52-2.68,25.31,25.31,0,0,0-2.92-2.23,19.87,19.87,0,0,0-6.7-3c1,.67,2.08,1.26,3.09,1.91s2,1.28,3,1.95C320.49,391.58,322.44,393,324.5,394.29Z" fill="#f7a48b"/><path d="M318.43,396.91a33.33,33.33,0,0,0-5-4.4,29.32,29.32,0,0,0-5.8-3.36,50.51,50.51,0,0,0,5.17,4.23A43.77,43.77,0,0,0,318.43,396.91Z" fill="#f7a48b"/><path d="M310.76,398.87a12.14,12.14,0,0,0-1.94-1.92,18.22,18.22,0,0,0-2.24-1.55,12.3,12.3,0,0,0-5.16-1.76c.79.48,1.56.91,2.33,1.35l2.29,1.33C307.58,397.2,309.09,398.1,310.76,398.87Z" fill="#f7a48b"/><path d="M318.1,354.6s10.7-6.07,19.46-6.23a11.93,11.93,0,0,1,1.89.13c3.54.49,14.71,2.48,10.23,7.78,0,0,1.39,2.78-2.36,2.64,0,0,2.08,3.9-1.95,4,0,0,1.81,2.64-2.23,2.5,0,0-9-1.94-13.05-1.27a1.74,1.74,0,0,0-1.48,1.65c0,.73.4,1.55,2,1.93,0,0,8.77-1.06,6.55,2.42A13.15,13.15,0,0,1,329,372a8.45,8.45,0,0,1-4.17-2,1.89,1.89,0,0,0-1.69-.32Z" fill="#f9b499"/><path d="M349.68,356.28a12.49,12.49,0,0,0-3.5-3.13,14.85,14.85,0,0,0-4.4-1.8,16,16,0,0,0-4.72-.36c-1.55.07-3.09.21-4.64.41,1.55.21,3.09.35,4.64.42a22.24,22.24,0,0,1,4.48.57,20.16,20.16,0,0,1,4.24,1.49A23,23,0,0,1,349.68,356.28Z" fill="#f7a48b"/><path d="M347.32,358.92a9,9,0,0,0-2.72-2.21,14.84,14.84,0,0,0-3.25-1.34,17,17,0,0,0-3.45-.6,15.65,15.65,0,0,0-3.49.11c1.14.28,2.26.47,3.37.71s2.2.49,3.28.81a32,32,0,0,1,3.18,1.06A22.71,22.71,0,0,1,347.32,358.92Z" fill="#f7a48b"/><path d="M345.37,363a5.62,5.62,0,0,0-2-2.08,11,11,0,0,0-2.58-1.27A15,15,0,0,0,338,359a12.75,12.75,0,0,0-2.83,0c.89.34,1.78.6,2.66.86s1.75.53,2.6.84a24.79,24.79,0,0,1,2.52,1A12.06,12.06,0,0,1,345.37,363Z" fill="#f7a48b"/><path d="M345.37,404h83.11l2.57-11h0l11.16-47.48a2.86,2.86,0,0,0-2.79-3.52H361.25a1.86,1.86,0,0,0-1.81,1.43Z" fill="#2f2e41"/><path d="M431.05,393h0l11.16-47.48a2.86,2.86,0,0,0-2.79-3.52H399.14S393.27,376.91,431.05,393Z" fill="#fff" opacity="0.2"/><circle cx="395.43" cy="375.41" r="6.87" opacity="0.2"/><path d="M361.25,342h-5.63a1.78,1.78,0,0,0-1.74,1.36l-13.59,55.48H306.6a9.2,9.2,0,0,0-7.23,3.51l-1.25,1.6h47.25l14.07-60.52S359.55,342.36,361.25,342Z" fill="#2f2e41"/><path d="M361.25,342h-5.63a1.78,1.78,0,0,0-1.74,1.36l-13.59,55.48H306.6a9.2,9.2,0,0,0-7.23,3.51l-1.25,1.6h47.25l14.07-60.52S359.55,342.36,361.25,342Z" opacity="0.2"/><g opacity="0.2"><rect x="353.9" y="399.26" width="72.85" height="1.07"/></g><path d="M242,435.93c-.77-3.64-2.43-15,3.11-24.76a84,84,0,0,0,5.36-10.9c4.57-11.69,13.39-34.93,8.12-52.37,0,0-7.32-34.66-27.1-32.64a5.27,5.27,0,0,0-2.07.68c-3.52,2-14.79,10.1-21.4,34a220.34,220.34,0,0,0-9.48,52.32s-.35,7-4.56,12.12c0,0-7.55,7.37.87,13.52,0,0,17.77,11.95,46.22,9.25A1.06,1.06,0,0,0,242,435.93Z" fill="#67bde0"/><path d="M236.43,404.05h-3.86v5.09s-36-35-15.45-68.12C217.12,341,202.55,383.16,236.43,404.05Z" opacity="0.2"/><path d="M288,399.8l8.2-18.41s2.81-2.27-6.78-2.8L254,373l34.45,9.62a2.24,2.24,0,0,1,1.62,2.47Z" fill="#67bde0"/><path d="M288,399.8l8.2-18.41s2.81-2.27-6.78-2.8L254,373l34.45,9.62a2.24,2.24,0,0,1,1.62,2.47Z" fill="#fff" opacity="0.2"/><path d="M259.38,369.94s-.39,2.52-.84,4.68c0,0-8.59,1.51-10.69-11.3,0,0-3.69-17.74-8.43-27.22,0,0-2.46-7.19-5.62-9.83,0,0,4.7-1.4,10.6,15.28C244.4,341.55,251.62,370.37,259.38,369.94Z" fill="#67bde0"/><path d="M259.38,369.94s-.39,2.52-.84,4.68c0,0-8.59,1.51-10.69-11.3,0,0-3.69-17.74-8.43-27.22,0,0-2.46-7.19-5.62-9.83,0,0,4.7-1.4,10.6,15.28C244.4,341.55,251.62,370.37,259.38,369.94Z" opacity="0.2"/><path d="M257.45,634.47a58.53,58.53,0,0,1,12.05,2.36h0V622.75c1.06-15.33,24-45.28,24-45.28,26.25-39.64,36.47-78.4,36.47-78.4,8.64-27.13-18.06-37.78-18.06-37.78-16.13,14.37-30.2,40.94-30.2,40.94-4.06,10.55-6.53,53-6.53,53-1.77,18.85-15.69,33.83-15.69,33.83,3.71,7.74-6.34,20.62-6.34,20.62C258.23,617.46,257.45,634.47,257.45,634.47Z" fill="#f9b499"/><polygon points="505.79 413.67 486.89 413.67 517.43 655.73 523.73 655.73 505.79 413.67" fill="#bcbec0"/><polygon points="279.56 413.62 248.84 655.73 242.65 655.73 262.14 413.62 279.56 413.62" fill="#bcbec0"/><path d="M247.31,360.91s.85,15,12.07,13.61l29.06,8.11s1.91.41,1.54,3l-2,14.18-2.2,4.95L244.92,404l-2.9-27.6Z" fill="#67bde0"/><rect x="233.8" y="403.98" width="300.11" height="13.57" transform="translate(767.71 821.53) rotate(-180)" fill="#a7a9ac"/><path d="M480,381.36s-4.88,48.42,2,80.05l69.93-7.74,10-30.38s-7.78-19.43-32.3-11.33c0,0-15.62-24.61-34-33.59C495.58,378.37,484.88,378.8,480,381.36Z" fill="#67bde0"/><path d="M480,381.36s-4.88,48.42,2,80.05l69.93-7.74,10-30.38s-7.78-19.43-32.3-11.33c0,0-15.62-24.61-34-33.59C495.58,378.37,484.88,378.8,480,381.36Z" opacity="0.2"/><path d="M495.58,378.37s39.57,0,62,38.72c0,0-9-11.55-28-5.13C529.59,412,514.62,388.42,495.58,378.37Z" fill="#67bde0"/><path d="M495.58,378.37s39.57,0,62,38.72c0,0-9-11.55-28-5.13C529.59,412,514.62,388.42,495.58,378.37Z" opacity="0.3"/><path d="M484.24,389.07S480,434,486,453.24l3.64-3.85s-5.14-28.45-2.57-51.55c0,0,1.83,5.22,7.32,5.77a9.39,9.39,0,0,0,8.86-4.68,24.45,24.45,0,0,0,2.43-5.8l-11.34-9-6.2,5.14Z" fill="#fff"/><path d="M520.61,410.24l3.63,11.56,6.42-3.21s1.34,7-4.68,9.94a9.92,9.92,0,0,1-8.56,0,8.22,8.22,0,0,1-5-6.48,10.88,10.88,0,0,1,8-11.78Z" fill="#fff"/><line x1="542.85" y1="416.66" x2="555.26" y2="425.22" fill="none" stroke="#fff" stroke-miterlimit="10"/><ellipse cx="566.35" cy="453.19" rx="24.33" ry="30.55" transform="translate(-116.97 209.86) rotate(-19.07)" fill="#67bde0"/><ellipse cx="566.35" cy="453.19" rx="24.33" ry="30.55" transform="translate(-116.97 209.86) rotate(-19.07)" opacity="0.1"/><rect x="672.03" y="421.18" width="43.34" height="43.34" rx="7.17" fill="#fff" opacity="0.6"/><rect x="608.29" y="419.52" width="43.34" height="43.34" rx="7.17" fill="#fff"/><rect x="667.03" y="476.19" width="43.34" height="43.34" rx="7.17" fill="#fff"/><rect x="664.36" y="531.53" width="43.34" height="100.16" rx="7.17" fill="#fff"/><ellipse cx="560.16" cy="454.8" rx="24.33" ry="30.55" transform="translate(-117.83 207.92) rotate(-19.07)" fill="#67bde0"/><ellipse cx="560.09" cy="455.13" rx="20.59" ry="25.38" transform="matrix(0.95, -0.33, 0.33, 0.95, -117.95, 207.92)" fill="#fff" opacity="0.2"/><path d="M567.48,468.68a1.06,1.06,0,0,1-.91-.51l-15.4-24.66a1.07,1.07,0,0,1,1.82-1.13L568.38,467a1.07,1.07,0,0,1-.34,1.47A1,1,0,0,1,567.48,468.68Z" fill="#fff"/><path d="M562.52,467.53a7,7,0,0,1-5.24-1.77,6.08,6.08,0,0,1-1.51-4.89,11.23,11.23,0,0,1,3-6.71,12.26,12.26,0,0,0,1.81-2.51,4,4,0,0,0-.49-4.4A3.67,3.67,0,0,0,556.1,446c-3.86,1.11-4.27,7.56-4.28,7.63a1.07,1.07,0,1,1-2.13-.12c0-.33.5-8,5.81-9.57a5.83,5.83,0,0,1,6.2,2,6.14,6.14,0,0,1,.72,6.75,14.76,14.76,0,0,1-2.11,3,9,9,0,0,0-2.4,5.41,4.08,4.08,0,0,0,.89,3.25c.83.84,2.28,1.21,4.32,1.12a4.78,4.78,0,0,0,3.1-1.84c1.23-1.63,1.52-4.15.87-7.48a1.05,1.05,0,0,1,.84-1.25,1.07,1.07,0,0,1,1.26.84c.78,4,.34,7.08-1.29,9.22a6.86,6.86,0,0,1-4.65,2.64C563,467.53,562.76,467.53,562.52,467.53Z" fill="#fff"/><ellipse cx="522.73" cy="470.79" rx="19.03" ry="27.51" fill="#67bde0"/><ellipse cx="522.73" cy="470.79" rx="19.03" ry="27.51" opacity="0.1"/><ellipse cx="507.94" cy="472.04" rx="34.4" ry="28.13" transform="translate(-121.15 763.73) rotate(-67.78)" fill="#67bde0"/><ellipse cx="507.61" cy="471.32" rx="27.51" ry="22.49" transform="translate(-120.68 762.96) rotate(-67.78)" fill="#fff" opacity="0.2"/><path d="M505.24,487.71h-.07a1.06,1.06,0,0,1-1-1.13l2-31.95a1.07,1.07,0,0,1,2.14.13l-2,31.95A1.06,1.06,0,0,1,505.24,487.71Z" fill="#fff"/><path d="M506.33,483.09a7.89,7.89,0,0,1-3.52-.78c-2.37-1.17-4.07-3.57-5.06-7.13a1.07,1.07,0,1,1,2.06-.58c.82,3,2.15,4.9,3.94,5.79,2.14,1.05,4.61.44,6.31-.25a3.88,3.88,0,0,0,2.44-2.87c.66-4.15-6.31-7.16-9.06-8-4.14-1.57-4.2-4.54-3.87-6.17a7.46,7.46,0,0,1,5.15-5.46,7.17,7.17,0,0,1,5.77.38c3.4,1.82,4.66,6.1,4.71,6.28a1.07,1.07,0,1,1-2.05.59s-1.08-3.61-3.68-5a5,5,0,0,0-4.09-.22,5.31,5.31,0,0,0-3.71,3.85c-.22,1.11-.21,2.7,2.45,3.71.4.11,11.59,3.49,10.49,10.34a6,6,0,0,1-3.74,4.51A12.24,12.24,0,0,1,506.33,483.09Z" fill="#fff"/><path d="M545,483.4s44.71-46.77,55.94-79.78c0,0,36.69,40.12,44.25,47l-11.11,32.83Z" fill="#67bde0"/><path d="M545,483.4s44.71-46.77,55.94-79.78c0,0,36.69,40.12,44.25,47l-11.11,32.83Z" opacity="0.2"/><path d="M594.26,434.11s-20.17,34.62-36.45,49.29h-4.2s36.53-43.56,48.91-69.47c0,0,27.19,28.48,33.65,34.19l-6.37-.25-15.13-15.82s.46,8-9.4,8.71C605.27,440.76,597.47,441.45,594.26,434.11Z" fill="#fff"/><path d="M593.66,483.4s-2.92-16.13,14.54-11.92c0,0,.07,8.62,2,12Z" fill="#fff"/><ellipse cx="636.17" cy="474.2" rx="22.75" ry="26.08" fill="#67bde0"/><ellipse cx="636.17" cy="474.2" rx="22.75" ry="26.08" opacity="0.1"/><path d="M631.12,447.85c-12.57,0-22.75,11.68-22.75,26.08S618.55,500,631.12,500s22.75-11.68,22.75-26.08S643.68,447.85,631.12,447.85Zm0,46.3c-9.75,0-17.65-9-17.65-20.22s7.9-20.23,17.65-20.23,17.64,9.06,17.64,20.23S640.86,494.15,631.12,494.15Z" fill="#67bde0"/><path d="M631.12,447.85c-12.57,0-22.75,11.68-22.75,26.08S618.55,500,631.12,500s22.75-11.68,22.75-26.08S643.68,447.85,631.12,447.85Zm0,46.3c-9.75,0-17.65-9-17.65-20.22s7.9-20.23,17.65-20.23,17.64,9.06,17.64,20.23S640.86,494.15,631.12,494.15Z" fill="#67bde0"/><ellipse cx="631.1" cy="474.08" rx="17.65" ry="20.22" fill="#67bde0"/><ellipse cx="631.1" cy="474.08" rx="17.65" ry="20.22" fill="#fff" opacity="0.2"/><path d="M632.78,486.91h-.09a10.21,10.21,0,0,1-8.84-10.19c0-3.66,1.19-6.45,3.41-8.27,4-3.26,9.88-2.23,10.13-2.19a.55.55,0,0,1,.43.63.54.54,0,0,1-.62.43c-.06,0-5.69-1-9.27,2-1.95,1.62-3,4.13-3,7.47a9,9,0,0,0,8,9.11.53.53,0,0,1-.1,1.06Z" fill="#fff"/><path d="M635.27,474.94H621.74a.54.54,0,0,1,0-1.07h13.53a.54.54,0,1,1,0,1.07Z" fill="#fff"/><path d="M635,478.51H621.43a.54.54,0,1,1,0-1.07H635a.54.54,0,0,1,0,1.07Z" fill="#fff"/><path d="M467.59,477.6V636s-.44,16.11,16.56,16.11H656.9a9.4,9.4,0,0,0,9.4-9.4V492.82a9.4,9.4,0,0,0-9.4-9.4H482.43a30.84,30.84,0,0,1-7.48-.87C471.71,481.75,468.08,480.27,467.59,477.6Z" fill="#2f2e41"/><path d="M474.48,491.94c-3-.68-4.75-1.59-5.35-2.72a1.41,1.41,0,0,1-.14-1.14l1,.35s-.13,1.35,4.73,2.47Z" fill="#fff"/><path d="M651,642.23h-7.39v-1.07H651a7.36,7.36,0,0,0,4.86-1.83l.71.8A8.46,8.46,0,0,1,651,642.23Zm-20.47,0H617.4v-1.07h13.09Zm-26.17,0H591.23v-1.07h13.09Zm-26.17,0H565.06v-1.07h13.09Zm-26.17,0H538.89v-1.07H552Zm-26.17,0H512.72v-1.07h13.09Zm-26.17,0H486.55v-1.07h13.09Zm159.75-14.81h-1.07V614.34h1.07Zm0-26.17h-1.07V588.17h1.07Zm0-26.16h-1.07V562h1.07Zm0-26.17h-1.07V535.83h1.07Zm0-26.17h-1.07V509.66h1.07Zm-3.5-25.26a11.26,11.26,0,0,0-8.87-4.3h-2.4v-1.07H647a12.33,12.33,0,0,1,9.71,4.7Zm-162.62-4.1c-2,0-3.93,0-5.68-.09l0-1.07c3.74.12,8.17.12,13.05,0l0,1.07C498.09,493.35,495.59,493.39,493.27,493.39Zm138.26-.2H618.45v-1.07h13.08Zm-26.17,0H592.28v-1.07h13.08Zm-26.17,0H566.11v-1.07h13.08Zm-26.17,0H539.94v-1.07H553Zm-26.17,0H513.77v-1.07h13.08Z" fill="#fff"/><path d="M473.84,638.63a20.76,20.76,0,0,1-4.77-4.5l.84-.66a20.24,20.24,0,0,0,4.54,4.28Z" fill="#fff"/><rect x="668.36" y="419.52" width="43.34" height="43.34" rx="7.17" fill="#fff"/><rect x="627.3" y="555.39" width="44.19" height="34.37" rx="3.35" fill="#2f2e41"/><rect x="627.3" y="555.39" width="44.19" height="34.37" rx="3.35" opacity="0.2"/><rect x="625.03" y="558.41" width="44.19" height="34.37" rx="3.35" fill="#2f2e41"/><circle cx="642.78" cy="573.14" r="8.69" opacity="0.2"/><circle cx="639.76" cy="574.28" r="8.69" fill="#67bde0"/></svg>