<svg xmlns="http://www.w3.org/2000/svg" version="1.1" xmlns:xlink="http://www.w3.org/1999/xlink" xmlns:svgjs="http://svgjs.com/svgjs" width="1440" height="560" preserveAspectRatio="none" viewBox="0 0 1440 560"><g mask="url(&quot;#SvgjsMask1762&quot;)" fill="none"><rect width="1440" height="560" x="0" y="0" fill="url(#SvgjsLinearGradient1763)"></rect><use xlink:href="#SvgjsG1766" transform="translate(0, 0)" fill="#0f457b"></use></g><defs><mask id="SvgjsMask1762"><rect width="1440" height="560" fill="#ffffff"></rect></mask><linearGradient x1="15.28%" y1="-39.29%" x2="84.72%" y2="139.29%" gradientUnits="userSpaceOnUse" id="SvgjsLinearGradient1763"><stop stop-color="rgba(0, 40, 82, 1)" offset="0"></stop><stop stop-color="rgba(0, 43, 98, 1)" offset="1"></stop></linearGradient><g id="SvgjsG1765"><path d="M8.19 8.34l-0.2 0.48c0.48 0.13 0.61-0.3 0.2-0.47l0-0.01z m-0.22-0.77L8.15 7.14c-0.36-0.08-0.51 0.28-0.18 0.43z"></path><path d="M8.85 6.13c-1.04-0.44-2.24 0.04-2.68 1.08-0.44 1.04 0.04 2.24 1.09 2.68 1.04 0.44 2.24-0.04 2.68-1.08 0.44-1.04-0.04-2.24-1.09-2.68l0 0z m-1.07 3.17l-0.14 0.33-0.47-0.19 0.15-0.34c-0.25-0.15-0.63-0.62-0.43-1.19l0.49 0.21c-0.03 0.16-0.06 0.34 0.14 0.5l0.23-0.56c-0.29-0.17-0.67-0.5-0.46-0.99 0.24-0.55 0.92-0.47 1.06-0.4l0.14-0.34 0.46 0.2-0.14 0.33c0.3 0.15 0.65 0.6 0.43 1.1l-0.48-0.21c0.05-0.15 0-0.35-0.15-0.41l-0.21 0.51c0.35 0.2 0.73 0.52 0.51 1.02-0.18 0.44-0.76 0.57-1.13 0.43l0 0z"></path><path d="M-0.9 8.49l14.73 6.25L16.93 7.44 2.2 1.19l-3.1 7.3z m1.98-0.8L3 3.17l11.95 5.07L13.03 12.77 1.08 7.69z"></path></g><g id="SvgjsG1764"><path d="M-1.62 10.88l14.23 6.04L11.99 18.39-2.24 12.34z m1.18-1.16l12.88 5.47-0.34 0.8L-0.78 10.52z m4.07-6.68l2.17 0.91-2.76 6.5-2.17-0.92z m4.32 1.83l2.17 0.92-2.76 6.49-2.17-0.92z m4.15 1.76l2.17 0.92-2.76 6.5L9.35 13.13zM2.36 0.82L11.13 0.64l5.96 6.43-0.37 0.85L1.99 1.68z"></path></g><g id="SvgjsG1766"><use xlink:href="#SvgjsG1764" transform="translate(0, 0) scale(2.7)" fill="#0f457b"></use><use xlink:href="#SvgjsG1765" transform="translate(0, 145.8) scale(2.7)" fill="#0f457b"></use><use xlink:href="#SvgjsG1765" transform="translate(0, 291.6) scale(2.7)" fill="#0f457b"></use><use xlink:href="#SvgjsG1765" transform="translate(0, 437.40000000000003) scale(2.7)" fill="#0f457b"></use><use xlink:href="#SvgjsG1764" transform="translate(145.8, 0) scale(2.7)" fill="#0f457b"></use><use xlink:href="#SvgjsG1764" transform="translate(145.8, 145.8) scale(2.7)" fill="#0f457b"></use><use xlink:href="#SvgjsG1764" transform="translate(145.8, 291.6) scale(2.7)" fill="#0f457b"></use><use xlink:href="#SvgjsG1765" transform="translate(145.8, 437.40000000000003) scale(2.7)" fill="#0f457b"></use><use xlink:href="#SvgjsG1764" transform="translate(291.6, 0) scale(2.7)" fill="#0f457b"></use><use xlink:href="#SvgjsG1765" transform="translate(291.6, 145.8) scale(2.7)" fill="#0f457b"></use><use xlink:href="#SvgjsG1765" transform="translate(291.6, 291.6) scale(2.7)" fill="#0f457b"></use><use xlink:href="#SvgjsG1764" transform="translate(291.6, 437.40000000000003) scale(2.7)" fill="#0f457b"></use><use xlink:href="#SvgjsG1764" transform="translate(437.40000000000003, 0) scale(2.7)" fill="#0f457b"></use><use xlink:href="#SvgjsG1764" transform="translate(437.40000000000003, 145.8) scale(2.7)" fill="#0f457b"></use><use xlink:href="#SvgjsG1765" transform="translate(437.40000000000003, 291.6) scale(2.7)" fill="#0f457b"></use><use xlink:href="#SvgjsG1764" transform="translate(437.40000000000003, 437.40000000000003) scale(2.7)" fill="#0f457b"></use><use xlink:href="#SvgjsG1764" transform="translate(583.2, 0) scale(2.7)" fill="#0f457b"></use><use xlink:href="#SvgjsG1765" transform="translate(583.2, 145.8) scale(2.7)" fill="#0f457b"></use><use xlink:href="#SvgjsG1765" transform="translate(583.2, 291.6) scale(2.7)" fill="#0f457b"></use><use xlink:href="#SvgjsG1765" transform="translate(583.2, 437.40000000000003) scale(2.7)" fill="#0f457b"></use><use xlink:href="#SvgjsG1765" transform="translate(729, 0) scale(2.7)" fill="#0f457b"></use><use xlink:href="#SvgjsG1765" transform="translate(729, 145.8) scale(2.7)" fill="#0f457b"></use><use xlink:href="#SvgjsG1764" transform="translate(729, 291.6) scale(2.7)" fill="#0f457b"></use><use xlink:href="#SvgjsG1764" transform="translate(729, 437.40000000000003) scale(2.7)" fill="#0f457b"></use><use xlink:href="#SvgjsG1765" transform="translate(874.8000000000001, 0) scale(2.7)" fill="#0f457b"></use><use xlink:href="#SvgjsG1765" transform="translate(874.8000000000001, 145.8) scale(2.7)" fill="#0f457b"></use><use xlink:href="#SvgjsG1765" transform="translate(874.8000000000001, 291.6) scale(2.7)" fill="#0f457b"></use><use xlink:href="#SvgjsG1765" transform="translate(874.8000000000001, 437.40000000000003) scale(2.7)" fill="#0f457b"></use><use xlink:href="#SvgjsG1765" transform="translate(1020.6000000000001, 0) scale(2.7)" fill="#0f457b"></use><use xlink:href="#SvgjsG1765" transform="translate(1020.6000000000001, 145.8) scale(2.7)" fill="#0f457b"></use><use xlink:href="#SvgjsG1764" transform="translate(1020.6000000000001, 291.6) scale(2.7)" fill="#0f457b"></use><use xlink:href="#SvgjsG1765" transform="translate(1020.6000000000001, 437.40000000000003) scale(2.7)" fill="#0f457b"></use><use xlink:href="#SvgjsG1764" transform="translate(1166.4, 0) scale(2.7)" fill="#0f457b"></use><use xlink:href="#SvgjsG1764" transform="translate(1166.4, 145.8) scale(2.7)" fill="#0f457b"></use><use xlink:href="#SvgjsG1765" transform="translate(1166.4, 291.6) scale(2.7)" fill="#0f457b"></use><use xlink:href="#SvgjsG1765" transform="translate(1166.4, 437.40000000000003) scale(2.7)" fill="#0f457b"></use><use xlink:href="#SvgjsG1764" transform="translate(1312.2, 0) scale(2.7)" fill="#0f457b"></use><use xlink:href="#SvgjsG1764" transform="translate(1312.2, 145.8) scale(2.7)" fill="#0f457b"></use><use xlink:href="#SvgjsG1765" transform="translate(1312.2, 291.6) scale(2.7)" fill="#0f457b"></use><use xlink:href="#SvgjsG1765" transform="translate(1312.2, 437.40000000000003) scale(2.7)" fill="#0f457b"></use></g></defs></svg>