<svg xmlns="http://www.w3.org/2000/svg" version="1.1" xmlns:xlink="http://www.w3.org/1999/xlink" xmlns:svgjs="http://svgjs.com/svgjs" width="1440" height="560" preserveAspectRatio="none" viewBox="0 0 1440 560"><g mask="url(&quot;#SvgjsMask1272&quot;)" fill="none"><rect width="1440" height="560" x="0" y="0" fill="url(#SvgjsLinearGradient1273)"></rect><path d="M-45.9 385.43L-45.9 385.43" stroke="#132e65" stroke-width="1.5"></path><path d="M-45.9 385.43L61.31 382.95" stroke="#132e65" stroke-width="1.5"></path><path d="M-45.9 385.43L-45.66 560.03" stroke="#132e65" stroke-width="1.5"></path><path d="M-45.66 560.03L-45.66 560.03" stroke="#132e65" stroke-width="1.5"></path><path d="M-45.66 560.03L-84.5 638.42" stroke="#132e65" stroke-width="1.5"></path><path d="M-45.66 560.03L102.86 538.49" stroke="#132e65" stroke-width="1.5"></path><path d="M-84.5 638.42L-84.5 638.42" stroke="#132e65" stroke-width="1.5"></path><path d="M61.31 382.95L61.31 382.95" stroke="#132e65" stroke-width="1.5"></path><path d="M102.86 538.49L102.86 538.49" stroke="#132e65" stroke-width="1.5"></path><path d="M102.86 538.49L231.99 527.23" stroke="#132e65" stroke-width="1.5"></path><path d="M102.86 538.49L61.31 382.95" stroke="#132e65" stroke-width="1.5"></path><path d="M231.99 527.23L231.99 527.23" stroke="#132e65" stroke-width="1.5"></path><path d="M231.99 527.23L368.45 490.95" stroke="#132e65" stroke-width="1.5"></path><path d="M231.99 527.23L353.21 410.9" stroke="#132e65" stroke-width="1.5"></path><path d="M231.99 527.23L225.06 706.8" stroke="#132e65" stroke-width="1.5"></path><path d="M225.06 706.8L225.06 706.8" stroke="#132e65" stroke-width="1.5"></path><path d="M225.06 706.8L102.86 538.49" stroke="#132e65" stroke-width="1.5"></path><path d="M353.21 410.9L353.21 410.9" stroke="#132e65" stroke-width="1.5"></path><path d="M353.21 410.9L368.45 490.95" stroke="#132e65" stroke-width="1.5"></path><path d="M353.21 410.9L521.92 349.87" stroke="#132e65" stroke-width="1.5"></path><path d="M353.21 410.9L545.17 518.93" stroke="#132e65" stroke-width="1.5"></path><path d="M368.45 490.95L368.45 490.95" stroke="#132e65" stroke-width="1.5"></path><path d="M368.45 490.95L545.17 518.93" stroke="#132e65" stroke-width="1.5"></path><path d="M368.45 490.95L521.92 349.87" stroke="#132e65" stroke-width="1.5"></path><path d="M368.45 490.95L225.06 706.8" stroke="#132e65" stroke-width="1.5"></path><path d="M521.92 349.87L521.92 349.87" stroke="#132e65" stroke-width="1.5"></path><path d="M521.92 349.87L641.28 406.25" stroke="#132e65" stroke-width="1.5"></path><path d="M521.92 349.87L640.02 260.09" stroke="#132e65" stroke-width="1.5"></path><path d="M545.17 518.93L545.17 518.93" stroke="#132e65" stroke-width="1.5"></path><path d="M545.17 518.93L673.23 522.21" stroke="#132e65" stroke-width="1.5"></path><path d="M545.17 518.93L641.28 406.25" stroke="#132e65" stroke-width="1.5"></path><path d="M545.18 687L545.18 687" stroke="#132e65" stroke-width="1.5"></path><path d="M545.18 687L545.17 518.93" stroke="#132e65" stroke-width="1.5"></path><path d="M545.18 687L673.23 522.21" stroke="#132e65" stroke-width="1.5"></path><path d="M545.18 687L368.45 490.95" stroke="#132e65" stroke-width="1.5"></path><path d="M545.18 687L837.76 645.35" stroke="#132e65" stroke-width="1.5"></path><path d="M545.18 687L641.28 406.25" stroke="#132e65" stroke-width="1.5"></path><path d="M640.02 260.09L640.02 260.09" stroke="#132e65" stroke-width="1.5"></path><path d="M640.02 260.09L641.28 406.25" stroke="#132e65" stroke-width="1.5"></path><path d="M640.02 260.09L817.2 236.69" stroke="#132e65" stroke-width="1.5"></path><path d="M640.02 260.09L833.96 102.53" stroke="#132e65" stroke-width="1.5"></path><path d="M640.02 260.09L852.18 394.48" stroke="#132e65" stroke-width="1.5"></path><path d="M640.02 260.09L673.23 522.21" stroke="#132e65" stroke-width="1.5"></path><path d="M641.28 406.25L641.28 406.25" stroke="#132e65" stroke-width="1.5"></path><path d="M641.28 406.25L673.23 522.21" stroke="#132e65" stroke-width="1.5"></path><path d="M673.23 522.21L673.23 522.21" stroke="#132e65" stroke-width="1.5"></path><path d="M673.23 522.21L842.78 507.88" stroke="#132e65" stroke-width="1.5"></path><path d="M673.23 522.21L837.76 645.35" stroke="#132e65" stroke-width="1.5"></path><path d="M833.96 102.53L833.96 102.53" stroke="#132e65" stroke-width="1.5"></path><path d="M833.96 102.53L817.2 236.69" stroke="#132e65" stroke-width="1.5"></path><path d="M833.96 102.53L973.34 40.21" stroke="#132e65" stroke-width="1.5"></path><path d="M833.96 102.53L999.79 193.26" stroke="#132e65" stroke-width="1.5"></path><path d="M833.96 102.53L1008.64 -64.23" stroke="#132e65" stroke-width="1.5"></path><path d="M833.96 102.53L1122.03 107.74" stroke="#132e65" stroke-width="1.5"></path><path d="M817.2 236.69L817.2 236.69" stroke="#132e65" stroke-width="1.5"></path><path d="M817.2 236.69L852.18 394.48" stroke="#132e65" stroke-width="1.5"></path><path d="M817.2 236.69L999.79 193.26" stroke="#132e65" stroke-width="1.5"></path><path d="M817.2 236.69L641.28 406.25" stroke="#132e65" stroke-width="1.5"></path><path d="M817.2 236.69L973.34 40.21" stroke="#132e65" stroke-width="1.5"></path><path d="M852.18 394.48L852.18 394.48" stroke="#132e65" stroke-width="1.5"></path><path d="M852.18 394.48L842.78 507.88" stroke="#132e65" stroke-width="1.5"></path><path d="M852.18 394.48L641.28 406.25" stroke="#132e65" stroke-width="1.5"></path><path d="M852.18 394.48L673.23 522.21" stroke="#132e65" stroke-width="1.5"></path><path d="M852.18 394.48L999.79 193.26" stroke="#132e65" stroke-width="1.5"></path><path d="M842.78 507.88L842.78 507.88" stroke="#132e65" stroke-width="1.5"></path><path d="M842.78 507.88L837.76 645.35" stroke="#132e65" stroke-width="1.5"></path><path d="M842.78 507.88L978.79 672.94" stroke="#132e65" stroke-width="1.5"></path><path d="M842.78 507.88L641.28 406.25" stroke="#132e65" stroke-width="1.5"></path><path d="M842.78 507.88L817.2 236.69" stroke="#132e65" stroke-width="1.5"></path><path d="M837.76 645.35L837.76 645.35" stroke="#132e65" stroke-width="1.5"></path><path d="M837.76 645.35L978.79 672.94" stroke="#132e65" stroke-width="1.5"></path><path d="M837.76 645.35L852.18 394.48" stroke="#132e65" stroke-width="1.5"></path><path d="M1008.64 -64.23L1008.64 -64.23" stroke="#132e65" stroke-width="1.5"></path><path d="M1008.64 -64.23L973.34 40.21" stroke="#132e65" stroke-width="1.5"></path><path d="M1008.64 -64.23L1147.6 -84" stroke="#132e65" stroke-width="1.5"></path><path d="M1008.64 -64.23L1122.03 107.74" stroke="#132e65" stroke-width="1.5"></path><path d="M1008.64 -64.23L999.79 193.26" stroke="#132e65" stroke-width="1.5"></path><path d="M1008.64 -64.23L1294.52 -58.47" stroke="#132e65" stroke-width="1.5"></path><path d="M973.34 40.21L973.34 40.21" stroke="#132e65" stroke-width="1.5"></path><path d="M973.34 40.21L999.79 193.26" stroke="#132e65" stroke-width="1.5"></path><path d="M973.34 40.21L1122.03 107.74" stroke="#132e65" stroke-width="1.5"></path><path d="M999.79 193.26L999.79 193.26" stroke="#132e65" stroke-width="1.5"></path><path d="M999.79 193.26L1129.98 213.14" stroke="#132e65" stroke-width="1.5"></path><path d="M999.79 193.26L1122.03 107.74" stroke="#132e65" stroke-width="1.5"></path><path d="M978.79 672.94L978.79 672.94" stroke="#132e65" stroke-width="1.5"></path><path d="M978.79 672.94L1110.82 677.23" stroke="#132e65" stroke-width="1.5"></path><path d="M978.79 672.94L1113.32 555.11" stroke="#132e65" stroke-width="1.5"></path><path d="M1147.6 -84L1147.6 -84" stroke="#132e65" stroke-width="1.5"></path><path d="M1147.6 -84L1294.52 -58.47" stroke="#132e65" stroke-width="1.5"></path><path d="M1147.6 -84L1122.03 107.74" stroke="#132e65" stroke-width="1.5"></path><path d="M1122.03 107.74L1122.03 107.74" stroke="#132e65" stroke-width="1.5"></path><path d="M1122.03 107.74L1129.98 213.14" stroke="#132e65" stroke-width="1.5"></path><path d="M1129.98 213.14L1129.98 213.14" stroke="#132e65" stroke-width="1.5"></path><path d="M1129.98 213.14L1141.04 357.12" stroke="#132e65" stroke-width="1.5"></path><path d="M1129.98 213.14L1297.48 237.8" stroke="#132e65" stroke-width="1.5"></path><path d="M1129.98 213.14L973.34 40.21" stroke="#132e65" stroke-width="1.5"></path><path d="M1129.98 213.14L1307.8 41.41" stroke="#132e65" stroke-width="1.5"></path><path d="M1141.04 357.12L1141.04 357.12" stroke="#132e65" stroke-width="1.5"></path><path d="M1141.04 357.12L1279.81 411.96" stroke="#132e65" stroke-width="1.5"></path><path d="M1141.04 357.12L1297.48 237.8" stroke="#132e65" stroke-width="1.5"></path><path d="M1141.04 357.12L1113.32 555.11" stroke="#132e65" stroke-width="1.5"></path><path d="M1141.04 357.12L999.79 193.26" stroke="#132e65" stroke-width="1.5"></path><path d="M1113.32 555.11L1113.32 555.11" stroke="#132e65" stroke-width="1.5"></path><path d="M1113.32 555.11L1110.82 677.23" stroke="#132e65" stroke-width="1.5"></path><path d="M1113.32 555.11L1310.73 560.24" stroke="#132e65" stroke-width="1.5"></path><path d="M1113.32 555.11L1249.92 712.29" stroke="#132e65" stroke-width="1.5"></path><path d="M1113.32 555.11L1279.81 411.96" stroke="#132e65" stroke-width="1.5"></path><path d="M1110.82 677.23L1110.82 677.23" stroke="#132e65" stroke-width="1.5"></path><path d="M1110.82 677.23L1249.92 712.29" stroke="#132e65" stroke-width="1.5"></path><path d="M1110.82 677.23L1310.73 560.24" stroke="#132e65" stroke-width="1.5"></path><path d="M1110.82 677.23L837.76 645.35" stroke="#132e65" stroke-width="1.5"></path><path d="M1110.82 677.23L1279.81 411.96" stroke="#132e65" stroke-width="1.5"></path><path d="M1294.52 -58.47L1294.52 -58.47" stroke="#132e65" stroke-width="1.5"></path><path d="M1294.52 -58.47L1307.8 41.41" stroke="#132e65" stroke-width="1.5"></path><path d="M1294.52 -58.47L1396.61 -108.07" stroke="#132e65" stroke-width="1.5"></path><path d="M1294.52 -58.47L1393.03 91.14" stroke="#132e65" stroke-width="1.5"></path><path d="M1294.52 -58.47L1122.03 107.74" stroke="#132e65" stroke-width="1.5"></path><path d="M1307.8 41.41L1307.8 41.41" stroke="#132e65" stroke-width="1.5"></path><path d="M1307.8 41.41L1393.03 91.14" stroke="#132e65" stroke-width="1.5"></path><path d="M1307.8 41.41L1396.61 -108.07" stroke="#132e65" stroke-width="1.5"></path><path d="M1307.8 41.41L1297.48 237.8" stroke="#132e65" stroke-width="1.5"></path><path d="M1307.8 41.41L1122.03 107.74" stroke="#132e65" stroke-width="1.5"></path><path d="M1307.8 41.41L1147.6 -84" stroke="#132e65" stroke-width="1.5"></path><path d="M1297.48 237.8L1297.48 237.8" stroke="#132e65" stroke-width="1.5"></path><path d="M1297.48 237.8L1441.52 256.09" stroke="#132e65" stroke-width="1.5"></path><path d="M1297.48 237.8L1393.03 91.14" stroke="#132e65" stroke-width="1.5"></path><path d="M1297.48 237.8L1279.81 411.96" stroke="#132e65" stroke-width="1.5"></path><path d="M1297.48 237.8L1420.51 367.59" stroke="#132e65" stroke-width="1.5"></path><path d="M1279.81 411.96L1279.81 411.96" stroke="#132e65" stroke-width="1.5"></path><path d="M1279.81 411.96L1420.51 367.59" stroke="#132e65" stroke-width="1.5"></path><path d="M1279.81 411.96L1310.73 560.24" stroke="#132e65" stroke-width="1.5"></path><path d="M1310.73 560.24L1310.73 560.24" stroke="#132e65" stroke-width="1.5"></path><path d="M1310.73 560.24L1411.25 555.45" stroke="#132e65" stroke-width="1.5"></path><path d="M1249.92 712.29L1249.92 712.29" stroke="#132e65" stroke-width="1.5"></path><path d="M1249.92 712.29L1310.73 560.24" stroke="#132e65" stroke-width="1.5"></path><path d="M1249.92 712.29L1456.38 688.9" stroke="#132e65" stroke-width="1.5"></path><path d="M1249.92 712.29L1411.25 555.45" stroke="#132e65" stroke-width="1.5"></path><path d="M1249.92 712.29L978.79 672.94" stroke="#132e65" stroke-width="1.5"></path><path d="M1396.61 -108.07L1396.61 -108.07" stroke="#132e65" stroke-width="1.5"></path><path d="M1396.61 -108.07L1592.37 -74.94" stroke="#132e65" stroke-width="1.5"></path><path d="M1396.61 -108.07L1393.03 91.14" stroke="#132e65" stroke-width="1.5"></path><path d="M1396.61 -108.07L1574.56 62.83" stroke="#132e65" stroke-width="1.5"></path><path d="M1393.03 91.14L1393.03 91.14" stroke="#132e65" stroke-width="1.5"></path><path d="M1393.03 91.14L1441.52 256.09" stroke="#132e65" stroke-width="1.5"></path><path d="M1441.52 256.09L1441.52 256.09" stroke="#132e65" stroke-width="1.5"></path><path d="M1441.52 256.09L1420.51 367.59" stroke="#132e65" stroke-width="1.5"></path><path d="M1420.51 367.59L1420.51 367.59" stroke="#132e65" stroke-width="1.5"></path><path d="M1420.51 367.59L1584.83 392.86" stroke="#132e65" stroke-width="1.5"></path><path d="M1411.25 555.45L1411.25 555.45" stroke="#132e65" stroke-width="1.5"></path><path d="M1411.25 555.45L1456.38 688.9" stroke="#132e65" stroke-width="1.5"></path><path d="M1411.25 555.45L1546.79 642.69" stroke="#132e65" stroke-width="1.5"></path><path d="M1411.25 555.45L1420.51 367.59" stroke="#132e65" stroke-width="1.5"></path><path d="M1411.25 555.45L1587.85 490.09" stroke="#132e65" stroke-width="1.5"></path><path d="M1456.38 688.9L1456.38 688.9" stroke="#132e65" stroke-width="1.5"></path><path d="M1456.38 688.9L1546.79 642.69" stroke="#132e65" stroke-width="1.5"></path><path d="M1456.38 688.9L1310.73 560.24" stroke="#132e65" stroke-width="1.5"></path><path d="M1456.38 688.9L1587.85 490.09" stroke="#132e65" stroke-width="1.5"></path><path d="M1456.38 688.9L1584.83 392.86" stroke="#132e65" stroke-width="1.5"></path><path d="M1592.37 -74.94L1592.37 -74.94" stroke="#132e65" stroke-width="1.5"></path><path d="M1592.37 -74.94L1574.56 62.83" stroke="#132e65" stroke-width="1.5"></path><path d="M1592.37 -74.94L1393.03 91.14" stroke="#132e65" stroke-width="1.5"></path><path d="M1574.56 62.83L1574.56 62.83" stroke="#132e65" stroke-width="1.5"></path><path d="M1574.56 62.83L1555.19 219.83" stroke="#132e65" stroke-width="1.5"></path><path d="M1574.56 62.83L1393.03 91.14" stroke="#132e65" stroke-width="1.5"></path><path d="M1574.56 62.83L1441.52 256.09" stroke="#132e65" stroke-width="1.5"></path><path d="M1555.19 219.83L1555.19 219.83" stroke="#132e65" stroke-width="1.5"></path><path d="M1555.19 219.83L1441.52 256.09" stroke="#132e65" stroke-width="1.5"></path><path d="M1555.19 219.83L1584.83 392.86" stroke="#132e65" stroke-width="1.5"></path><path d="M1555.19 219.83L1420.51 367.59" stroke="#132e65" stroke-width="1.5"></path><path d="M1555.19 219.83L1393.03 91.14" stroke="#132e65" stroke-width="1.5"></path><path d="M1555.19 219.83L1297.48 237.8" stroke="#132e65" stroke-width="1.5"></path><path d="M1584.83 392.86L1584.83 392.86" stroke="#132e65" stroke-width="1.5"></path><path d="M1584.83 392.86L1587.85 490.09" stroke="#132e65" stroke-width="1.5"></path><path d="M1584.83 392.86L1441.52 256.09" stroke="#132e65" stroke-width="1.5"></path><path d="M1584.83 392.86L1411.25 555.45" stroke="#132e65" stroke-width="1.5"></path><path d="M1587.85 490.09L1587.85 490.09" stroke="#132e65" stroke-width="1.5"></path><path d="M1587.85 490.09L1546.79 642.69" stroke="#132e65" stroke-width="1.5"></path><path d="M1587.85 490.09L1420.51 367.59" stroke="#132e65" stroke-width="1.5"></path><path d="M1546.79 642.69L1546.79 642.69" stroke="#132e65" stroke-width="1.5"></path><circle r="5" cx="-45.9" cy="385.43" fill="#132e65"></circle><circle r="5" cx="-45.66" cy="560.03" fill="#132e65"></circle><circle r="5" cx="-84.5" cy="638.42" fill="#132e65"></circle><circle r="5" cx="61.31" cy="382.95" fill="#132e65"></circle><circle r="5" cx="102.86" cy="538.49" fill="#132e65"></circle><circle r="5" cx="231.99" cy="527.23" fill="#132e65"></circle><circle r="5" cx="225.06" cy="706.8" fill="#132e65"></circle><circle r="5" cx="353.21" cy="410.9" fill="#132e65"></circle><circle r="5" cx="368.45" cy="490.95" fill="#132e65"></circle><circle r="5" cx="521.92" cy="349.87" fill="#132e65"></circle><circle r="5" cx="545.17" cy="518.93" fill="#132e65"></circle><circle r="5" cx="545.18" cy="687" fill="#132e65"></circle><circle r="5" cx="640.02" cy="260.09" fill="#132e65"></circle><circle r="5" cx="641.28" cy="406.25" fill="#132e65"></circle><circle r="5" cx="673.23" cy="522.21" fill="#132e65"></circle><circle r="5" cx="833.96" cy="102.53" fill="#132e65"></circle><circle r="5" cx="817.2" cy="236.69" fill="#132e65"></circle><circle r="5" cx="852.18" cy="394.48" fill="#132e65"></circle><circle r="5" cx="842.78" cy="507.88" fill="#132e65"></circle><circle r="5" cx="837.76" cy="645.35" fill="#132e65"></circle><circle r="5" cx="1008.64" cy="-64.23" fill="#132e65"></circle><circle r="5" cx="973.34" cy="40.21" fill="#132e65"></circle><circle r="5" cx="999.79" cy="193.26" fill="#132e65"></circle><circle r="5" cx="978.79" cy="672.94" fill="#132e65"></circle><circle r="5" cx="1147.6" cy="-84" fill="#132e65"></circle><circle r="5" cx="1122.03" cy="107.74" fill="#132e65"></circle><circle r="5" cx="1129.98" cy="213.14" fill="#132e65"></circle><circle r="5" cx="1141.04" cy="357.12" fill="#132e65"></circle><circle r="5" cx="1113.32" cy="555.11" fill="#132e65"></circle><circle r="5" cx="1110.82" cy="677.23" fill="#132e65"></circle><circle r="5" cx="1294.52" cy="-58.47" fill="#132e65"></circle><circle r="5" cx="1307.8" cy="41.41" fill="#132e65"></circle><circle r="5" cx="1297.48" cy="237.8" fill="#132e65"></circle><circle r="5" cx="1279.81" cy="411.96" fill="#132e65"></circle><circle r="5" cx="1310.73" cy="560.24" fill="#132e65"></circle><circle r="5" cx="1249.92" cy="712.29" fill="#132e65"></circle><circle r="5" cx="1396.61" cy="-108.07" fill="#132e65"></circle><circle r="5" cx="1393.03" cy="91.14" fill="#132e65"></circle><circle r="5" cx="1441.52" cy="256.09" fill="#132e65"></circle><circle r="5" cx="1420.51" cy="367.59" fill="#132e65"></circle><circle r="5" cx="1411.25" cy="555.45" fill="#132e65"></circle><circle r="5" cx="1456.38" cy="688.9" fill="#132e65"></circle><circle r="5" cx="1592.37" cy="-74.94" fill="#132e65"></circle><circle r="5" cx="1574.56" cy="62.83" fill="#132e65"></circle><circle r="5" cx="1555.19" cy="219.83" fill="#132e65"></circle><circle r="5" cx="1584.83" cy="392.86" fill="#132e65"></circle><circle r="5" cx="1587.85" cy="490.09" fill="#132e65"></circle><circle r="5" cx="1546.79" cy="642.69" fill="#132e65"></circle><path d="M55.46 664.85L55.46 664.85" stroke="hsl(228.5, 77.2%, 51.5%)" stroke-width="1.5"></path><path d="M55.46 664.85L191.45 644.06" stroke="hsl(228.5, 77.2%, 51.5%)" stroke-width="1.5"></path><path d="M55.46 664.85L-82.41 653.08" stroke="hsl(228.5, 77.2%, 51.5%)" stroke-width="1.5"></path><path d="M55.46 664.85L-53.28 539.75" stroke="hsl(228.5, 77.2%, 51.5%)" stroke-width="1.5"></path><path d="M55.46 664.85L40.19 487.5" stroke="hsl(228.5, 77.2%, 51.5%)" stroke-width="1.5"></path><path d="M55.46 664.85L208.94 519.32" stroke="hsl(228.5, 77.2%, 51.5%)" stroke-width="1.5"></path><path d="M191.45 644.06L191.45 644.06" stroke="hsl(228.5, 77.2%, 51.5%)" stroke-width="1.5"></path><path d="M191.45 644.06L208.94 519.32" stroke="hsl(228.5, 77.2%, 51.5%)" stroke-width="1.5"></path><path d="M191.45 644.06L390 649.16" stroke="hsl(228.5, 77.2%, 51.5%)" stroke-width="1.5"></path><path d="M388.39 556.88L388.39 556.88" stroke="hsl(228.5, 77.2%, 51.5%)" stroke-width="1.5"></path><path d="M388.39 556.88L390 649.16" stroke="hsl(228.5, 77.2%, 51.5%)" stroke-width="1.5"></path><path d="M388.39 556.88L519.01 501.81" stroke="hsl(228.5, 77.2%, 51.5%)" stroke-width="1.5"></path><path d="M388.39 556.88L208.94 519.32" stroke="hsl(228.5, 77.2%, 51.5%)" stroke-width="1.5"></path><path d="M388.39 556.88L538.22 698.74" stroke="hsl(228.5, 77.2%, 51.5%)" stroke-width="1.5"></path><path d="M388.39 556.88L191.45 644.06" stroke="hsl(228.5, 77.2%, 51.5%)" stroke-width="1.5"></path><path d="M390 649.16L390 649.16" stroke="hsl(228.5, 77.2%, 51.5%)" stroke-width="1.5"></path><path d="M390 649.16L538.22 698.74" stroke="hsl(228.5, 77.2%, 51.5%)" stroke-width="1.5"></path><path d="M390 649.16L519.01 501.81" stroke="hsl(228.5, 77.2%, 51.5%)" stroke-width="1.5"></path><path d="M1009.47 252.81L1009.47 252.81" stroke="hsl(228.5, 77.2%, 51.5%)" stroke-width="1.5"></path><path d="M1009.47 252.81L1130.06 251.1" stroke="hsl(228.5, 77.2%, 51.5%)" stroke-width="1.5"></path><path d="M1009.47 252.81L953.84 391.51" stroke="hsl(228.5, 77.2%, 51.5%)" stroke-width="1.5"></path><path d="M1009.47 252.81L1152.36 374.61" stroke="hsl(228.5, 77.2%, 51.5%)" stroke-width="1.5"></path><path d="M1009.47 252.81L1144.93 94.82" stroke="hsl(228.5, 77.2%, 51.5%)" stroke-width="1.5"></path><path d="M1009.47 252.81L829.05 383.73" stroke="hsl(228.5, 77.2%, 51.5%)" stroke-width="1.5"></path><path d="M1009.47 252.81L1241.05 384.8" stroke="hsl(228.5, 77.2%, 51.5%)" stroke-width="1.5"></path><path d="M1130.06 251.1L1130.06 251.1" stroke="hsl(228.5, 77.2%, 51.5%)" stroke-width="1.5"></path><path d="M1130.06 251.1L1152.36 374.61" stroke="hsl(228.5, 77.2%, 51.5%)" stroke-width="1.5"></path><path d="M1130.06 251.1L1144.93 94.82" stroke="hsl(228.5, 77.2%, 51.5%)" stroke-width="1.5"></path><path d="M1130.06 251.1L1294.25 262.1" stroke="hsl(228.5, 77.2%, 51.5%)" stroke-width="1.5"></path><path d="M1130.06 251.1L1241.05 384.8" stroke="hsl(228.5, 77.2%, 51.5%)" stroke-width="1.5"></path><path d="M1130.06 251.1L953.84 391.51" stroke="hsl(228.5, 77.2%, 51.5%)" stroke-width="1.5"></path><path d="M1152.36 374.61L1152.36 374.61" stroke="hsl(228.5, 77.2%, 51.5%)" stroke-width="1.5"></path><path d="M1152.36 374.61L1241.05 384.8" stroke="hsl(228.5, 77.2%, 51.5%)" stroke-width="1.5"></path><path d="M1152.36 374.61L1110.17 527.68" stroke="hsl(228.5, 77.2%, 51.5%)" stroke-width="1.5"></path><path d="M1152.36 374.61L1294.25 262.1" stroke="hsl(228.5, 77.2%, 51.5%)" stroke-width="1.5"></path><path d="M1152.36 374.61L1265.28 523.77" stroke="hsl(228.5, 77.2%, 51.5%)" stroke-width="1.5"></path><path d="M1110.17 527.68L1110.17 527.68" stroke="hsl(228.5, 77.2%, 51.5%)" stroke-width="1.5"></path><path d="M1110.17 527.68L1135.09 650.77" stroke="hsl(228.5, 77.2%, 51.5%)" stroke-width="1.5"></path><path d="M1110.17 527.68L1265.28 523.77" stroke="hsl(228.5, 77.2%, 51.5%)" stroke-width="1.5"></path><path d="M1291.59 72.47L1291.59 72.47" stroke="hsl(228.5, 77.2%, 51.5%)" stroke-width="1.5"></path><path d="M1291.59 72.47L1411.6 41.55" stroke="hsl(228.5, 77.2%, 51.5%)" stroke-width="1.5"></path><path d="M1291.59 72.47L1144.93 94.82" stroke="hsl(228.5, 77.2%, 51.5%)" stroke-width="1.5"></path><path d="M1291.59 72.47L1289.09 -83.57" stroke="hsl(228.5, 77.2%, 51.5%)" stroke-width="1.5"></path><path d="M1446.12 190.71L1446.12 190.71" stroke="hsl(228.5, 77.2%, 51.5%)" stroke-width="1.5"></path><path d="M1446.12 190.71L1573.2 233.14" stroke="hsl(228.5, 77.2%, 51.5%)" stroke-width="1.5"></path><path d="M1446.12 190.71L1574.2 112.16" stroke="hsl(228.5, 77.2%, 51.5%)" stroke-width="1.5"></path><path d="M1446.12 190.71L1411.6 41.55" stroke="hsl(228.5, 77.2%, 51.5%)" stroke-width="1.5"></path><path d="M1446.12 190.71L1294.25 262.1" stroke="hsl(228.5, 77.2%, 51.5%)" stroke-width="1.5"></path><path d="M1446.12 190.71L1291.59 72.47" stroke="hsl(228.5, 77.2%, 51.5%)" stroke-width="1.5"></path><path d="M1417.96 400.76L1417.96 400.76" stroke="hsl(228.5, 77.2%, 51.5%)" stroke-width="1.5"></path><path d="M1417.96 400.76L1428.76 518.19" stroke="hsl(228.5, 77.2%, 51.5%)" stroke-width="1.5"></path><path d="M1417.96 400.76L1549.77 504.28" stroke="hsl(228.5, 77.2%, 51.5%)" stroke-width="1.5"></path><path d="M1417.96 400.76L1241.05 384.8" stroke="hsl(228.5, 77.2%, 51.5%)" stroke-width="1.5"></path><path d="M1417.96 400.76L1294.25 262.1" stroke="hsl(228.5, 77.2%, 51.5%)" stroke-width="1.5"></path><path d="M1417.96 400.76L1265.28 523.77" stroke="hsl(228.5, 77.2%, 51.5%)" stroke-width="1.5"></path><path d="M1417.96 400.76L1446.12 190.71" stroke="hsl(228.5, 77.2%, 51.5%)" stroke-width="1.5"></path><path d="M1574.2 112.16L1574.2 112.16" stroke="hsl(228.5, 77.2%, 51.5%)" stroke-width="1.5"></path><path d="M1574.2 112.16L1573.2 233.14" stroke="hsl(228.5, 77.2%, 51.5%)" stroke-width="1.5"></path><path d="M1574.2 112.16L1411.6 41.55" stroke="hsl(228.5, 77.2%, 51.5%)" stroke-width="1.5"></path><path d="M1593.13 685.47L1593.13 685.47" stroke="hsl(228.5, 77.2%, 51.5%)" stroke-width="1.5"></path><path d="M1593.13 685.47L1462.22 677.98" stroke="hsl(228.5, 77.2%, 51.5%)" stroke-width="1.5"></path><path d="M1593.13 685.47L1549.77 504.28" stroke="hsl(228.5, 77.2%, 51.5%)" stroke-width="1.5"></path><path d="M1593.13 685.47L1428.76 518.19" stroke="hsl(228.5, 77.2%, 51.5%)" stroke-width="1.5"></path><path d="M1593.13 685.47L1293.14 658.99" stroke="hsl(228.5, 77.2%, 51.5%)" stroke-width="1.5"></path><path d="M1593.13 685.47L1417.96 400.76" stroke="hsl(228.5, 77.2%, 51.5%)" stroke-width="1.5"></path><path d="M1593.13 685.47L1265.28 523.77" stroke="hsl(228.5, 77.2%, 51.5%)" stroke-width="1.5"></path><path d="M-53.28 539.75L-53.28 539.75" stroke="hsl(228.5, 77.2%, 51.5%)" stroke-width="1.5"></path><path d="M-53.28 539.75L40.19 487.5" stroke="hsl(228.5, 77.2%, 51.5%)" stroke-width="1.5"></path><path d="M-53.28 539.75L-82.41 653.08" stroke="hsl(228.5, 77.2%, 51.5%)" stroke-width="1.5"></path><path d="M-82.41 653.08L-82.41 653.08" stroke="hsl(228.5, 77.2%, 51.5%)" stroke-width="1.5"></path><path d="M-82.41 653.08L40.19 487.5" stroke="hsl(228.5, 77.2%, 51.5%)" stroke-width="1.5"></path><path d="M-82.41 653.08L191.45 644.06" stroke="hsl(228.5, 77.2%, 51.5%)" stroke-width="1.5"></path><path d="M-82.41 653.08L208.94 519.32" stroke="hsl(228.5, 77.2%, 51.5%)" stroke-width="1.5"></path><path d="M-82.41 653.08L390 649.16" stroke="hsl(228.5, 77.2%, 51.5%)" stroke-width="1.5"></path><path d="M40.19 487.5L40.19 487.5" stroke="hsl(228.5, 77.2%, 51.5%)" stroke-width="1.5"></path><path d="M40.19 487.5L208.94 519.32" stroke="hsl(228.5, 77.2%, 51.5%)" stroke-width="1.5"></path><path d="M40.19 487.5L191.45 644.06" stroke="hsl(228.5, 77.2%, 51.5%)" stroke-width="1.5"></path><path d="M208.94 519.32L208.94 519.32" stroke="hsl(228.5, 77.2%, 51.5%)" stroke-width="1.5"></path><path d="M519.01 501.81L519.01 501.81" stroke="hsl(228.5, 77.2%, 51.5%)" stroke-width="1.5"></path><path d="M519.01 501.81L659.72 520.1" stroke="hsl(228.5, 77.2%, 51.5%)" stroke-width="1.5"></path><path d="M538.22 698.74L538.22 698.74" stroke="hsl(228.5, 77.2%, 51.5%)" stroke-width="1.5"></path><path d="M538.22 698.74L519.01 501.81" stroke="hsl(228.5, 77.2%, 51.5%)" stroke-width="1.5"></path><path d="M538.22 698.74L659.72 520.1" stroke="hsl(228.5, 77.2%, 51.5%)" stroke-width="1.5"></path><path d="M659.72 520.1L659.72 520.1" stroke="hsl(228.5, 77.2%, 51.5%)" stroke-width="1.5"></path><path d="M659.72 520.1L807.15 538.58" stroke="hsl(228.5, 77.2%, 51.5%)" stroke-width="1.5"></path><path d="M659.72 520.1L810.07 650.94" stroke="hsl(228.5, 77.2%, 51.5%)" stroke-width="1.5"></path><path d="M659.72 520.1L829.05 383.73" stroke="hsl(228.5, 77.2%, 51.5%)" stroke-width="1.5"></path><path d="M829.05 383.73L829.05 383.73" stroke="hsl(228.5, 77.2%, 51.5%)" stroke-width="1.5"></path><path d="M829.05 383.73L953.84 391.51" stroke="hsl(228.5, 77.2%, 51.5%)" stroke-width="1.5"></path><path d="M829.05 383.73L807.15 538.58" stroke="hsl(228.5, 77.2%, 51.5%)" stroke-width="1.5"></path><path d="M807.15 538.58L807.15 538.58" stroke="hsl(228.5, 77.2%, 51.5%)" stroke-width="1.5"></path><path d="M807.15 538.58L810.07 650.94" stroke="hsl(228.5, 77.2%, 51.5%)" stroke-width="1.5"></path><path d="M807.15 538.58L948.77 533.29" stroke="hsl(228.5, 77.2%, 51.5%)" stroke-width="1.5"></path><path d="M807.15 538.58L953.84 391.51" stroke="hsl(228.5, 77.2%, 51.5%)" stroke-width="1.5"></path><path d="M810.07 650.94L810.07 650.94" stroke="hsl(228.5, 77.2%, 51.5%)" stroke-width="1.5"></path><path d="M810.07 650.94L967.38 675.8" stroke="hsl(228.5, 77.2%, 51.5%)" stroke-width="1.5"></path><path d="M810.07 650.94L948.77 533.29" stroke="hsl(228.5, 77.2%, 51.5%)" stroke-width="1.5"></path><path d="M953.84 391.51L953.84 391.51" stroke="hsl(228.5, 77.2%, 51.5%)" stroke-width="1.5"></path><path d="M953.84 391.51L948.77 533.29" stroke="hsl(228.5, 77.2%, 51.5%)" stroke-width="1.5"></path><path d="M948.77 533.29L948.77 533.29" stroke="hsl(228.5, 77.2%, 51.5%)" stroke-width="1.5"></path><path d="M948.77 533.29L967.38 675.8" stroke="hsl(228.5, 77.2%, 51.5%)" stroke-width="1.5"></path><path d="M948.77 533.29L1110.17 527.68" stroke="hsl(228.5, 77.2%, 51.5%)" stroke-width="1.5"></path><path d="M967.38 675.8L967.38 675.8" stroke="hsl(228.5, 77.2%, 51.5%)" stroke-width="1.5"></path><path d="M967.38 675.8L1135.09 650.77" stroke="hsl(228.5, 77.2%, 51.5%)" stroke-width="1.5"></path><path d="M967.38 675.8L1110.17 527.68" stroke="hsl(228.5, 77.2%, 51.5%)" stroke-width="1.5"></path><path d="M967.38 675.8L807.15 538.58" stroke="hsl(228.5, 77.2%, 51.5%)" stroke-width="1.5"></path><path d="M1144.93 94.82L1144.93 94.82" stroke="hsl(228.5, 77.2%, 51.5%)" stroke-width="1.5"></path><path d="M1144.93 94.82L1294.25 262.1" stroke="hsl(228.5, 77.2%, 51.5%)" stroke-width="1.5"></path><path d="M1144.93 94.82L1289.09 -83.57" stroke="hsl(228.5, 77.2%, 51.5%)" stroke-width="1.5"></path><path d="M1144.93 94.82L1411.6 41.55" stroke="hsl(228.5, 77.2%, 51.5%)" stroke-width="1.5"></path><path d="M1135.09 650.77L1135.09 650.77" stroke="hsl(228.5, 77.2%, 51.5%)" stroke-width="1.5"></path><path d="M1135.09 650.77L1293.14 658.99" stroke="hsl(228.5, 77.2%, 51.5%)" stroke-width="1.5"></path><path d="M1289.09 -83.57L1289.09 -83.57" stroke="hsl(228.5, 77.2%, 51.5%)" stroke-width="1.5"></path><path d="M1289.09 -83.57L1436.64 -92.46" stroke="hsl(228.5, 77.2%, 51.5%)" stroke-width="1.5"></path><path d="M1289.09 -83.57L1411.6 41.55" stroke="hsl(228.5, 77.2%, 51.5%)" stroke-width="1.5"></path><path d="M1294.25 262.1L1294.25 262.1" stroke="hsl(228.5, 77.2%, 51.5%)" stroke-width="1.5"></path><path d="M1294.25 262.1L1241.05 384.8" stroke="hsl(228.5, 77.2%, 51.5%)" stroke-width="1.5"></path><path d="M1241.05 384.8L1241.05 384.8" stroke="hsl(228.5, 77.2%, 51.5%)" stroke-width="1.5"></path><path d="M1241.05 384.8L1265.28 523.77" stroke="hsl(228.5, 77.2%, 51.5%)" stroke-width="1.5"></path><path d="M1265.28 523.77L1265.28 523.77" stroke="hsl(228.5, 77.2%, 51.5%)" stroke-width="1.5"></path><path d="M1265.28 523.77L1293.14 658.99" stroke="hsl(228.5, 77.2%, 51.5%)" stroke-width="1.5"></path><path d="M1265.28 523.77L1428.76 518.19" stroke="hsl(228.5, 77.2%, 51.5%)" stroke-width="1.5"></path><path d="M1265.28 523.77L1135.09 650.77" stroke="hsl(228.5, 77.2%, 51.5%)" stroke-width="1.5"></path><path d="M1293.14 658.99L1293.14 658.99" stroke="hsl(228.5, 77.2%, 51.5%)" stroke-width="1.5"></path><path d="M1293.14 658.99L1462.22 677.98" stroke="hsl(228.5, 77.2%, 51.5%)" stroke-width="1.5"></path><path d="M1293.14 658.99L1428.76 518.19" stroke="hsl(228.5, 77.2%, 51.5%)" stroke-width="1.5"></path><path d="M1293.14 658.99L1110.17 527.68" stroke="hsl(228.5, 77.2%, 51.5%)" stroke-width="1.5"></path><path d="M1436.64 -92.46L1436.64 -92.46" stroke="hsl(228.5, 77.2%, 51.5%)" stroke-width="1.5"></path><path d="M1436.64 -92.46L1411.6 41.55" stroke="hsl(228.5, 77.2%, 51.5%)" stroke-width="1.5"></path><path d="M1436.64 -92.46L1584.24 -68.99" stroke="hsl(228.5, 77.2%, 51.5%)" stroke-width="1.5"></path><path d="M1411.6 41.55L1411.6 41.55" stroke="hsl(228.5, 77.2%, 51.5%)" stroke-width="1.5"></path><path d="M1428.76 518.19L1428.76 518.19" stroke="hsl(228.5, 77.2%, 51.5%)" stroke-width="1.5"></path><path d="M1428.76 518.19L1549.77 504.28" stroke="hsl(228.5, 77.2%, 51.5%)" stroke-width="1.5"></path><path d="M1462.22 677.98L1462.22 677.98" stroke="hsl(228.5, 77.2%, 51.5%)" stroke-width="1.5"></path><path d="M1462.22 677.98L1428.76 518.19" stroke="hsl(228.5, 77.2%, 51.5%)" stroke-width="1.5"></path><path d="M1462.22 677.98L1549.77 504.28" stroke="hsl(228.5, 77.2%, 51.5%)" stroke-width="1.5"></path><path d="M1462.22 677.98L1265.28 523.77" stroke="hsl(228.5, 77.2%, 51.5%)" stroke-width="1.5"></path><path d="M1462.22 677.98L1417.96 400.76" stroke="hsl(228.5, 77.2%, 51.5%)" stroke-width="1.5"></path><path d="M1584.24 -68.99L1584.24 -68.99" stroke="hsl(228.5, 77.2%, 51.5%)" stroke-width="1.5"></path><path d="M1584.24 -68.99L1574.2 112.16" stroke="hsl(228.5, 77.2%, 51.5%)" stroke-width="1.5"></path><path d="M1584.24 -68.99L1411.6 41.55" stroke="hsl(228.5, 77.2%, 51.5%)" stroke-width="1.5"></path><path d="M1584.24 -68.99L1446.12 190.71" stroke="hsl(228.5, 77.2%, 51.5%)" stroke-width="1.5"></path><path d="M1584.24 -68.99L1289.09 -83.57" stroke="hsl(228.5, 77.2%, 51.5%)" stroke-width="1.5"></path><path d="M1573.2 233.14L1573.2 233.14" stroke="hsl(228.5, 77.2%, 51.5%)" stroke-width="1.5"></path><path d="M1573.2 233.14L1417.96 400.76" stroke="hsl(228.5, 77.2%, 51.5%)" stroke-width="1.5"></path><path d="M1573.2 233.14L1411.6 41.55" stroke="hsl(228.5, 77.2%, 51.5%)" stroke-width="1.5"></path><path d="M1549.77 504.28L1549.77 504.28" stroke="hsl(228.5, 77.2%, 51.5%)" stroke-width="1.5"></path><circle r="25" cx="55.46" cy="664.85" fill="url(#SvgjsRadialGradient1274)"></circle><circle r="25" cx="191.45" cy="644.06" fill="url(#SvgjsRadialGradient1274)"></circle><circle r="25" cx="388.39" cy="556.88" fill="url(#SvgjsRadialGradient1274)"></circle><circle r="25" cx="390" cy="649.16" fill="url(#SvgjsRadialGradient1274)"></circle><circle r="25" cx="1009.47" cy="252.81" fill="url(#SvgjsRadialGradient1274)"></circle><circle r="25" cx="1130.06" cy="251.1" fill="url(#SvgjsRadialGradient1274)"></circle><circle r="25" cx="1152.36" cy="374.61" fill="url(#SvgjsRadialGradient1274)"></circle><circle r="25" cx="1110.17" cy="527.68" fill="url(#SvgjsRadialGradient1274)"></circle><circle r="25" cx="1291.59" cy="72.47" fill="url(#SvgjsRadialGradient1274)"></circle><circle r="25" cx="1446.12" cy="190.71" fill="url(#SvgjsRadialGradient1274)"></circle><circle r="25" cx="1417.96" cy="400.76" fill="url(#SvgjsRadialGradient1274)"></circle><circle r="25" cx="1574.2" cy="112.16" fill="url(#SvgjsRadialGradient1274)"></circle><circle r="25" cx="1593.13" cy="685.47" fill="url(#SvgjsRadialGradient1274)"></circle><circle r="5" cx="-53.28" cy="539.75" fill="#8b9ad9"></circle><circle r="5" cx="-82.41" cy="653.08" fill="#8b9ad9"></circle><circle r="5" cx="40.19" cy="487.5" fill="#8b9ad9"></circle><circle r="5" cx="208.94" cy="519.32" fill="#8b9ad9"></circle><circle r="5" cx="519.01" cy="501.81" fill="#8b9ad9"></circle><circle r="5" cx="538.22" cy="698.74" fill="#8b9ad9"></circle><circle r="5" cx="659.72" cy="520.1" fill="#8b9ad9"></circle><circle r="5" cx="829.05" cy="383.73" fill="#8b9ad9"></circle><circle r="5" cx="807.15" cy="538.58" fill="#8b9ad9"></circle><circle r="5" cx="810.07" cy="650.94" fill="#8b9ad9"></circle><circle r="5" cx="953.84" cy="391.51" fill="#8b9ad9"></circle><circle r="5" cx="948.77" cy="533.29" fill="#8b9ad9"></circle><circle r="5" cx="967.38" cy="675.8" fill="#8b9ad9"></circle><circle r="5" cx="1144.93" cy="94.82" fill="#8b9ad9"></circle><circle r="5" cx="1135.09" cy="650.77" fill="#8b9ad9"></circle><circle r="5" cx="1289.09" cy="-83.57" fill="#8b9ad9"></circle><circle r="5" cx="1294.25" cy="262.1" fill="#8b9ad9"></circle><circle r="5" cx="1241.05" cy="384.8" fill="#8b9ad9"></circle><circle r="5" cx="1265.28" cy="523.77" fill="#8b9ad9"></circle><circle r="5" cx="1293.14" cy="658.99" fill="#8b9ad9"></circle><circle r="5" cx="1436.64" cy="-92.46" fill="#8b9ad9"></circle><circle r="5" cx="1411.6" cy="41.55" fill="#8b9ad9"></circle><circle r="5" cx="1428.76" cy="518.19" fill="#8b9ad9"></circle><circle r="5" cx="1462.22" cy="677.98" fill="#8b9ad9"></circle><circle r="5" cx="1584.24" cy="-68.99" fill="#8b9ad9"></circle><circle r="5" cx="1573.2" cy="233.14" fill="#8b9ad9"></circle><circle r="5" cx="1549.77" cy="504.28" fill="#8b9ad9"></circle></g><defs><mask id="SvgjsMask1272"><rect width="1440" height="560" fill="#ffffff"></rect></mask><linearGradient x1="15.28%" y1="-39.29%" x2="84.72%" y2="139.29%" gradientUnits="userSpaceOnUse" id="SvgjsLinearGradient1273"><stop stop-color="rgba(0, 91, 184, 1)" offset="0"></stop><stop stop-color="rgba(0, 42, 88, 1)" offset="1"></stop></linearGradient><radialGradient id="SvgjsRadialGradient1274"><stop stop-color="#ffffff" offset="0.1"></stop><stop stop-color="#1735b3" offset="0.2"></stop><stop stop-color="rgba(23, 53, 179, 0)" offset="1"></stop></radialGradient></defs></svg>